<?xml version="1.0" standalone="no"?><!DOCTYPE svg PUBLIC "-//W3C//DTD SVG 1.1//EN" "http://www.w3.org/Graphics/SVG/1.1/DTD/svg11.dtd"><svg t="1542682843213" class="icon" style="" viewBox="0 0 1024 1024" version="1.1" xmlns="http://www.w3.org/2000/svg" p-id="3668" xmlns:xlink="http://www.w3.org/1999/xlink" width="200" height="200"><defs><style type="text/css"></style></defs><path d="M903.7 64 535.5 64c-14.9 0-29.2 5.9-39.8 16.5L80.5 495.6c-22 22-22 57.6 0 79.6l368.3 368.3c22 22 57.6 22 79.6 0l415.2-415.2c10.6-10.6 16.5-24.9 16.5-39.8L960.1 120.3C960 89.2 934.8 64 903.7 64zM680 456c-61.9 0-112-50.1-112-112s50.1-112 112-112 112 50.1 112 112S741.9 456 680 456z" p-id="3669"></path></svg>